# xmcd
#
# Track frame offsets: 
#        150
#        24529
#        40506
#        52867
#        71341
#        84053
#        104710
#        118662
#        132577
#        148778
#        168612
#        187021
#        199976
#        213440
#        228965
#        246784
#        264104
#        282433
#
# Disc length: 3994 seconds
#
# Revision: 1
# Processed by: cddbd v1.5.1PL0 Copyright (c) Steve Scherf et al.
# Submitted via: ExactAudioCopy v0.95a5
#
DISCID=040f9812
DTITLE=Ball, Michael - I Dreamed a Dream
DYEAR=2003
DGENRE=Musical
TTITLE0=Music of the Night [from 'The Phantom of the Opera']
TTITLE1=Love Changes Everything [from 'Aspects of Love']
TTITLE2=Don't Rain on My Parade
TTITLE3=Can You Feel the Love Tonight [from 'The Lion King']
TTITLE4=Show Me [from 'My Fair Lady']
TTITLE5=Last Night of the World [from 'Miss Saigon']
TTITLE6=Anthem [from 'Chess']
TTITLE7=Sunset Boulevard [from 'Sunset Boulevard']
TTITLE8=Tell Me on a Sunday [from 'Tell Me on a Sunday']
TTITLE9=The Boy from Nowhere
TTITLE10=Seasons of Love [from 'Rent']
TTITLE11=Every Story [from 'Aida']
TTITLE12=Something's Coming [from 'West Side Story']
TTITLE13=I Dreamed a Dream [from 'Les Miserables']
TTITLE14=Loving You [from 'Passion']
TTITLE15=Tell Me It's Not True [from 'Blood Brothers']
TTITLE16=Memory [from 'Cats']
TTITLE17=You'll Never Walk Alone [from 'Carousel']
EXTD=YEAR: 2003
EXTT0=
EXTT1=
EXTT2=
EXTT3=
EXTT4=
EXTT5=
EXTT6=
EXTT7=
EXTT8=
EXTT9=
EXTT10=
EXTT11=
EXTT12=
EXTT13=
EXTT14=
EXTT15=
EXTT16=
EXTT17=
PLAYORDER=
